<svg width="20" height="20" viewBox="0 0 20 20" fill="none" xmlns="http://www.w3.org/2000/svg">
<g clip-path="url(#clip0_1_187)">
<path d="M1.66666 9.99999C1.66666 14.6025 5.39749 18.3333 9.99999 18.3333C14.6025 18.3333 18.3333 14.6025 18.3333 9.99999C18.3333 5.39749 14.6025 1.66666 9.99999 1.66666C5.39749 1.66666 1.66666 5.39749 1.66666 9.99999Z" stroke="#838383" stroke-width="1.5" stroke-linecap="round" stroke-linejoin="round"/>
<path d="M10.8333 1.70831C10.8333 1.70831 13.3333 4.99998 13.3333 9.99998C13.3333 15 10.8333 18.2916 10.8333 18.2916" stroke="#838383" stroke-width="1.5" stroke-linecap="round" stroke-linejoin="round"/>
<path d="M9.16666 18.2916C9.16666 18.2916 6.66666 15 6.66666 9.99998C6.66666 4.99998 9.16666 1.70831 9.16666 1.70831" stroke="#838383" stroke-width="1.5" stroke-linecap="round" stroke-linejoin="round"/>
<path d="M2.19165 12.9167H17.8083" stroke="#838383" stroke-width="1.5" stroke-linecap="round" stroke-linejoin="round"/>
<path d="M2.19165 7.08331H17.8083" stroke="#838383" stroke-width="1.5" stroke-linecap="round" stroke-linejoin="round"/>
</g>
<defs>
<clipPath id="clip0_1_187">
<rect width="20" height="20" fill="white"/>
</clipPath>
</defs>
</svg>
